<?xml version="1.0" encoding="UTF-8"?>
<!-- Generator: Adobe Illustrator 25.2.3, SVG Export Plug-In . SVG Version: 6.00 Build 0)  -->
<svg version="1.1" id="Layer_1" xmlns="http://www.w3.org/2000/svg" xmlns:xlink="http://www.w3.org/1999/xlink" x="0px" y="0px" viewBox="0 0 470 529" style="enable-background:new 0 0 470 529; background: black" xml:space="preserve">
<style type="text/css">
	.st0{fill:#FFFFFF;}
</style>
<path class="st0" d="M320.3,376.8c0,7.8-3.9,12.6-10.9,12.6c-9.1,0-12.2-8.3-12.2-21.3V160.9c0-13.5,3.5-21.3,12.2-21.3  c8.3,0,11.7,7.8,11.7,21.3v70.5h48.7v-66.6c0-41.8-20.9-64.8-60.5-64.8c-40,0-64,23.1-64,64.8v198.9c0,41.8,22.2,65.3,55.7,65.3  c18.3,0,32.6-10,36.6-23.1c3.9,15.2,15.7,20.5,32.2,20.5V260.6h-60.1v46.6h10.4v69.6H320.3z M152.4,265.4V142.2h11.3  c8.7,0,12.2,7.8,12.2,22.2v79.2c0,13.9-3.5,21.8-12.2,21.8H152.4L152.4,265.4z M152,425.5V304.1h16.1c37,0,59.6-21.8,59.6-60.5  v-79.2c0-39.2-22.6-60.9-59.6-60.9h-67.9v322H152z"/>
</svg>