<?xml version="1.0" standalone="no"?>
<!DOCTYPE svg PUBLIC "-//W3C//DTD SVG 20010904//EN"
 "http://www.w3.org/TR/2001/REC-SVG-20010904/DTD/svg10.dtd">
<svg version="1.0" xmlns="http://www.w3.org/2000/svg"
 width="199.000000pt" height="239.000000pt" viewBox="0 0 199.000000 239.000000"
 preserveAspectRatio="xMidYMid meet">
<metadata>
Created by potrace 1.10, written by Peter Selinger 2001-2011
</metadata>
<g transform="translate(0.000000,239.000000) scale(0.100000,-0.100000)"
fill="#ffffff" stroke="none">
<path d="M940 2351 c-52 -55 -60 -97 -60 -330 0 -111 -2 -201 -4 -201 -2 0
-20 7 -39 15 -85 36 -187 4 -242 -74 l-30 -43 -3 -205 -3 -205 -36 41 c-103
121 -280 172 -417 120 -70 -26 -106 -66 -106 -120 0 -36 10 -53 105 -167 110
-131 167 -211 286 -395 39 -59 101 -146 139 -194 l70 -87 0 -71 c0 -173 80
-318 215 -387 80 -42 128 -48 386 -48 218 0 254 2 311 20 128 39 246 156 282
276 9 33 25 75 36 94 97 175 100 193 100 645 0 369 0 370 -24 421 -26 55 -59
84 -120 104 -44 14 -118 7 -152 -14 -21 -14 -22 -13 -27 35 -17 139 -150 226
-271 175 -21 -9 -40 -16 -41 -16 -2 0 -5 118 -7 263 -3 247 -5 264 -25 304
-39 73 -61 83 -181 83 l-105 0 -37 -39z m216 -37 c14 -9 30 -26 37 -38 9 -15
13 -169 17 -581 l5 -560 23 -3 c50 -7 52 3 52 245 0 247 5 269 60 298 60 31
137 10 165 -45 12 -24 15 -74 15 -273 0 -263 2 -272 52 -265 23 3 23 5 28 165
l5 162 29 30 c54 56 149 50 187 -13 18 -29 19 -54 19 -412 0 -357 -1 -386 -21
-449 -27 -88 -72 -138 -146 -162 -64 -22 -84 -43 -67 -71 12 -18 43 -21 82 -8
31 11 29 -16 -7 -80 -35 -60 -82 -104 -154 -142 l-52 -27 -280 0 c-265 0 -282
1 -326 21 -107 50 -189 167 -189 271 0 29 3 53 6 53 3 0 26 -16 51 -35 52 -40
56 -41 77 -19 33 32 21 49 -87 128 -49 36 -101 86 -141 137 -67 85 -80 103
-219 314 -47 72 -133 186 -191 255 -58 69 -105 132 -103 139 1 8 18 24 37 35
77 46 228 18 318 -58 34 -30 105 -133 146 -215 32 -63 66 -79 86 -41 8 15 7
27 -5 49 -12 25 -15 78 -15 305 l0 276 29 32 c26 30 35 33 84 33 41 0 61 -5
77 -20 46 -41 50 -67 50 -358 0 -199 3 -276 12 -285 18 -18 46 -14 58 7 6 13
10 215 10 586 l0 567 34 34 c29 29 41 34 80 34 26 0 58 -7 72 -16z"/>
</g>
</svg>
